# Blender v2.93.1 OBJ File: ''
# www.blender.org
mtllib Diamond.mtl
o Cone
v 0.000000 0.599999 1.600000
v 1.028460 0.600000 1.225672
v 1.575692 0.600000 0.277837
v 1.385641 0.600000 -0.800000
v 0.547232 0.600001 -1.503508
v -0.547232 0.600001 -1.503508
v -1.385641 0.600000 -0.800000
v -1.575692 0.600000 0.277837
v -1.028460 0.600000 1.225671
v 0.000000 -1.400000 -0.000000
v 0.000000 1.000000 0.960001
v 0.617076 1.000000 0.735403
v 0.945415 1.000000 0.166703
v 0.831384 1.000000 -0.480000
v 0.328339 1.000000 -0.902104
v -0.328339 1.000000 -0.902104
v -0.831384 1.000000 -0.479999
v -0.945415 1.000000 0.166703
v -0.617076 1.000000 0.735403
vt 0.250000 0.490000
vt 0.250000 0.250000
vt 0.404269 0.433851
vt 0.486354 0.291676
vt 0.457846 0.130000
vt 0.332085 0.024474
vt 0.167915 0.024474
vt 0.042154 0.130000
vt 0.013646 0.291676
vt 0.332085 0.024474
vt 0.457846 0.130000
vt 0.095731 0.433851
vt 0.750000 0.490000
vt 0.904269 0.433851
vt 0.986354 0.291676
vt 0.957846 0.130000
vt 0.832085 0.024474
vt 0.667915 0.024474
vt 0.542154 0.130000
vt 0.513646 0.291676
vt 0.595731 0.433851
vt 0.042154 0.130000
vt 0.167915 0.024474
vt 0.095731 0.433851
vt 0.013646 0.291676
vt 0.486354 0.291676
vt 0.404269 0.433851
vt 0.250000 0.490000
vn 0.2734 -0.6009 0.7511
vn 0.6922 -0.6009 0.3997
vn 0.7872 -0.6009 -0.1388
vn 0.5138 -0.6009 -0.6123
vn 0.0000 -0.6009 -0.7993
vn -0.5138 -0.6009 -0.6123
vn -0.7872 -0.6009 -0.1388
vn 0.3560 0.8326 -0.4242
vn -0.6922 -0.6009 0.3997
vn -0.2734 -0.6009 0.7511
vn -0.0000 1.0000 0.0000
vn -0.3560 0.8326 -0.4242
vn -0.4796 0.8326 0.2769
vn 0.5454 0.8326 -0.0962
vn 0.0000 0.8326 -0.5538
vn -0.5454 0.8326 -0.0962
vn 0.4796 0.8326 0.2769
vn 0.1894 0.8326 0.5204
vn -0.1894 0.8326 0.5204
usemtl None
s off
f 1/1/1 10/2/1 2/3/1
f 2/3/2 10/2/2 3/4/2
f 3/4/3 10/2/3 4/5/3
f 4/5/4 10/2/4 5/6/4
f 5/6/5 10/2/5 6/7/5
f 6/7/6 10/2/6 7/8/6
f 7/8/7 10/2/7 8/9/7
f 4/5/8 5/6/8 15/10/8 14/11/8
f 8/9/9 10/2/9 9/12/9
f 9/12/10 10/2/10 1/1/10
f 11/13/11 12/14/11 13/15/11 14/16/11 15/17/11 16/18/11 17/19/11 18/20/11 19/21/11
f 6/7/12 7/8/12 17/22/12 16/23/12
f 8/9/13 9/12/13 19/24/13 18/25/13
f 3/4/14 4/5/14 14/11/14 13/26/14
f 5/6/15 6/7/15 16/23/15 15/10/15
f 7/8/16 8/9/16 18/25/16 17/22/16
f 2/3/17 3/4/17 13/26/17 12/27/17
f 1/1/18 2/3/18 12/27/18 11/28/18
f 9/12/19 1/1/19 11/28/19 19/24/19
