# Blender v2.92.0 OBJ File: ''
# www.blender.org
mtllib Dracula_Gem.mtl
o Cube
v 0.656338 1.003068 -0.581753
v 0.656338 1.003068 0.581753
v -0.656338 1.003068 -0.581753
v -0.656338 1.003068 0.581753
v 0.000000 0.129523 0.000000
v 0.000000 1.960656 0.000000
vt 0.000000 0.000000
vt 0.000000 0.000000
vt 0.000000 0.000000
vt 0.000000 0.000000
vt 0.000000 0.000000
vt 0.000000 0.000000
vn -0.8248 0.5654 0.0000
vn 0.0000 -0.5543 0.8323
vn 0.8248 0.5654 0.0000
vn 0.7995 -0.6007 0.0000
vn 0.0000 0.5192 0.8546
vn 0.0000 0.5192 -0.8546
vn 0.0000 -0.5543 -0.8323
vn -0.7995 -0.6007 0.0000
usemtl Material
s off
f 4/1/1 6/2/1 3/3/1
f 4/1/2 5/4/2 2/5/2
f 1/6/3 6/2/3 2/5/3
f 5/4/4 1/6/4 2/5/4
f 4/1/5 2/5/5 6/2/5
f 1/6/6 3/3/6 6/2/6
f 5/4/7 3/3/7 1/6/7
f 4/1/8 3/3/8 5/4/8
