# Blender v2.93.1 OBJ File: ''
# www.blender.org
mtllib pillar1.mtl
o Cube.001
v -2.000000 -0.000000 2.000000
v -2.000000 21.000000 2.000003
v -2.000000 21.000000 -1.999997
v -2.000000 0.000000 -2.000000
v 2.000000 21.000000 -1.999997
v 2.000000 0.000000 -2.000000
v 2.000000 21.000000 2.000003
v 2.000000 -0.000000 2.000000
v -1.767233 21.260204 1.767236
v -1.767233 21.260204 -1.767230
v 1.767233 21.260204 1.767236
v 1.767233 21.720568 1.767237
v -1.767233 21.720568 1.767237
v 1.767233 21.260204 -1.767230
v 1.767233 21.720568 -1.767229
v 1.900875 21.920725 -1.900871
v 1.900875 21.920725 1.900879
v -1.767233 21.720568 -1.767229
v -1.900875 21.920725 -1.900871
v -1.900875 21.920725 1.900879
v -0.629114 24.102448 0.629118
v -0.629114 24.102448 -0.629110
v 0.629114 24.102448 0.629118
v 0.820671 24.402685 0.820675
v -0.820671 24.402685 0.820675
v 0.629114 24.102448 -0.629110
v 0.820671 24.402685 -0.820667
v 0.620977 26.104027 -0.620973
v 0.620977 26.104027 0.620981
v -0.820671 24.402685 -0.820667
v -0.620977 26.104027 -0.620973
v -0.620977 26.104027 0.620981
v -0.227260 26.204027 0.227264
v -0.227260 26.204027 -0.227256
v 0.227260 26.204027 0.227264
v 0.227260 26.442280 0.227264
v -0.227260 26.442280 0.227264
v 0.227260 26.204027 -0.227256
v 0.227260 26.442280 -0.227256
v 0.089132 26.676683 -0.089128
v 0.089132 26.676683 0.089136
v -0.227260 26.442280 -0.227256
v -0.089132 26.676683 -0.089128
v -0.089132 26.676683 0.089136
vt 0.459372 1.000000
vt 0.459372 0.199329
vt 0.612496 0.199329
vt 0.612496 1.000000
vt 0.153124 0.000000
vt 0.153124 0.800670
vt 0.000000 0.800670
vt 0.000000 0.000000
vt 0.306248 1.000000
vt 0.306248 0.199329
vt 0.459372 0.199329
vt 0.459372 1.000000
vt 0.153124 1.000000
vt 0.153124 0.199329
vt 0.306248 0.199329
vt 0.306248 1.000000
vt 0.612496 0.000000
vt 0.765620 0.000000
vt 0.765620 0.153124
vt 0.612496 0.153124
vt 0.468282 0.188610
vt 0.603585 0.188610
vt 0.297337 0.188610
vt 0.162035 0.188610
vt 0.162035 0.171059
vt 0.297337 0.171059
vt 0.144213 0.811389
vt 0.008911 0.811389
vt 0.315158 0.188610
vt 0.450461 0.188610
vt 0.450461 0.171059
vt 0.315158 0.171059
vt 0.310043 0.163885
vt 0.455577 0.163885
vt 0.144213 0.828942
vt 0.008911 0.828942
vt 0.468282 0.171059
vt 0.603585 0.171059
vt 0.608701 0.163885
vt 0.463166 0.163885
vt 0.511851 0.076342
vt 0.560017 0.076342
vt 0.156919 0.163885
vt 0.302453 0.163885
vt 0.149329 0.836115
vt 0.003795 0.836115
vt 0.253769 0.076342
vt 0.205603 0.076342
vt 0.198270 0.065552
vt 0.261102 0.065552
vt 0.100645 0.923658
vt 0.052479 0.923658
vt 0.358727 0.076342
vt 0.406893 0.076342
vt 0.414226 0.065552
vt 0.351394 0.065552
vt 0.359038 0.000000
vt 0.406582 0.000000
vt 0.107978 0.934448
vt 0.045146 0.934448
vt 0.504518 0.065552
vt 0.567350 0.065552
vt 0.660039 0.200667
vt 0.612496 0.200667
vt 0.627568 0.185595
vt 0.644967 0.185595
vt 0.512162 0.000000
vt 0.559705 0.000000
vt 0.205914 0.000000
vt 0.253458 0.000000
vt 0.100334 1.000000
vt 0.052790 1.000000
vt 0.629895 0.274645
vt 0.612496 0.274645
vt 0.612496 0.265562
vt 0.629895 0.265562
vt 0.612496 0.153124
vt 0.627568 0.168196
vt 0.660039 0.153124
vt 0.644967 0.168196
vt 0.629895 0.210077
vt 0.612496 0.210077
vt 0.617783 0.200666
vt 0.624608 0.200666
vt 0.629895 0.256149
vt 0.612496 0.256149
vt 0.612496 0.247066
vt 0.629895 0.247066
vt 0.629895 0.219160
vt 0.612496 0.219160
vt 0.612496 0.219162
vt 0.629895 0.219162
vt 0.629895 0.228247
vt 0.612496 0.228247
vt 0.619320 0.274645
vt 0.619320 0.281469
vt 0.612496 0.281469
vt 0.612496 0.274645
vt 0.624608 0.237656
vt 0.617784 0.237656
vt 0.617784 0.256151
vt 0.624608 0.256151
vt 0.624608 0.237656
vn -1.0000 -0.0000 0.0000
vn 0.0000 0.0000 -1.0000
vn 1.0000 0.0000 0.0000
vn 0.0000 -0.0000 1.0000
vn 0.0000 -1.0000 -0.0000
vn -0.7453 0.6667 0.0000
vn 0.0000 0.6667 0.7453
vn 0.0000 0.6667 -0.7453
vn 0.7453 0.6667 0.0000
vn 0.8317 -0.5553 0.0000
vn -0.8639 0.5036 0.0000
vn -0.8317 -0.5553 0.0000
vn 0.0000 -0.5553 0.8317
vn 0.0000 -0.5553 -0.8317
vn 0.0000 -0.5379 0.8430
vn 0.0000 0.5036 0.8639
vn 0.0000 0.5036 -0.8639
vn 0.8639 0.5036 0.0000
vn 0.9932 0.1166 0.0000
vn 0.0000 -0.5379 -0.8430
vn 0.8430 -0.5379 0.0000
vn -0.8430 -0.5379 0.0000
vn -0.2462 0.9692 0.0000
vn -0.9932 0.1166 0.0000
vn 0.0000 0.1166 0.9932
vn 0.0000 0.1166 -0.9932
vn 0.0000 0.9692 0.2462
vn 0.0000 0.9692 -0.2462
vn 0.2462 0.9692 0.0000
vn 0.8615 0.5077 0.0000
vn 0.0000 1.0000 0.0000
vn -0.8615 0.5077 0.0000
vn 0.0000 0.5077 0.8615
vn 0.0000 0.5077 -0.8615
usemtl None
s 1
f 1/1/1 2/2/1 3/3/1 4/4/1
f 4/5/2 3/6/2 5/7/2 6/8/2
f 6/9/3 5/10/3 7/11/3 8/12/3
f 8/13/4 7/14/4 2/15/4 1/16/4
f 4/17/5 6/18/5 8/19/5 1/20/5
f 3/3/6 2/2/6 9/21/6 10/22/6
f 9/23/4 11/24/4 12/25/4 13/26/4
f 2/15/7 7/14/7 11/24/7 9/23/7
f 5/7/8 3/6/8 10/27/8 14/28/8
f 7/11/9 5/10/9 14/29/9 11/30/9
f 12/31/10 15/32/10 16/33/10 17/34/10
f 14/28/2 10/27/2 18/35/2 15/36/2
f 11/30/3 14/29/3 15/32/3 12/31/3
f 10/22/1 9/21/1 13/37/1 18/38/1
f 19/39/11 20/40/11 21/41/11 22/42/11
f 18/38/12 13/37/12 20/40/12 19/39/12
f 13/26/13 12/25/13 17/43/13 20/44/13
f 15/36/14 18/35/14 19/45/14 16/46/14
f 21/47/15 23/48/15 24/49/15 25/50/15
f 20/44/16 17/43/16 23/48/16 21/47/16
f 16/46/17 19/45/17 22/51/17 26/52/17
f 17/34/18 16/33/18 26/53/18 23/54/18
f 24/55/19 27/56/19 28/57/19 29/58/19
f 26/52/20 22/51/20 30/59/20 27/60/20
f 23/54/21 26/53/21 27/56/21 24/55/21
f 22/42/22 21/41/22 25/61/22 30/62/22
f 31/63/23 32/64/23 33/65/23 34/66/23
f 30/62/24 25/61/24 32/67/24 31/68/24
f 25/50/25 24/49/25 29/69/25 32/70/25
f 27/60/26 30/59/26 31/71/26 28/72/26
f 33/73/4 35/74/4 36/75/4 37/76/4
f 32/64/27 29/77/27 35/78/27 33/65/27
f 28/79/28 31/63/28 34/66/28 38/80/28
f 29/77/29 28/79/29 38/80/29 35/78/29
f 36/81/30 39/82/30 40/83/30 41/84/30
f 38/85/2 34/86/2 42/87/2 39/88/2
f 35/89/3 38/90/3 39/82/3 36/81/3
f 34/91/1 33/92/1 37/93/1 42/94/1
f 40/95/31 43/96/31 44/97/31 41/98/31
f 42/94/32 37/93/32 44/99/32 43/100/32
f 37/76/33 36/75/33 41/101/33 44/102/33
f 39/88/34 42/87/34 43/100/34 40/103/34
