# Blender v2.93.1 OBJ File: ''
# www.blender.org
mtllib wallcap.mtl
o Cube
v -1.000000 0.000000 1.000000
v -0.291303 0.347171 0.291303
v -1.000000 0.000000 -1.000000
v -0.291303 0.347171 -0.291303
v 1.000000 0.000000 1.000000
v 0.291303 0.347171 0.291303
v 1.000000 0.000000 -1.000000
v 0.291303 0.347171 -0.291303
vt 0.500000 1.000000
vt 0.322826 0.822826
vt 0.322826 0.677174
vt 0.500000 0.500000
vt 0.177174 0.677174
vt 0.000000 0.500000
vt 0.177174 0.822826
vt 0.000000 1.000000
vt 0.000000 0.000000
vt 0.500000 0.000000
vt 0.500000 0.500000
vt 0.000000 0.500000
vn -0.4399 0.8980 0.0000
vn 0.0000 0.8980 -0.4399
vn 0.4399 0.8980 0.0000
vn 0.0000 0.8980 0.4399
vn 0.0000 -1.0000 0.0000
vn 0.0000 1.0000 0.0000
usemtl None
s off
f 1/1/1 2/2/1 4/3/1 3/4/1
f 3/4/2 4/3/2 8/5/2 7/6/2
f 7/6/3 8/5/3 6/7/3 5/8/3
f 5/8/4 6/7/4 2/2/4 1/1/4
f 3/9/5 7/10/5 5/11/5 1/12/5
f 8/5/6 4/3/6 2/2/6 6/7/6
