# Blender v2.93.1 OBJ File: ''
# www.blender.org
mtllib wall6.mtl
o Cube
v -10.000000 0.000000 1.000000
v -10.000000 10.000000 1.000000
v -10.000000 0.000000 -1.000000
v -10.000000 10.000000 -1.000000
v 10.000000 0.000000 1.000000
v 10.000000 10.000000 1.000000
v 10.000000 0.000000 -1.000000
v 10.000000 10.000000 -1.000000
v 8.000000 0.000000 -1.000000
v 6.000000 0.868604 -1.000000
v 4.000000 2.674757 -1.000000
v 2.000000 5.830791 -1.000000
v 0.000000 6.146931 -1.000000
v -2.000000 5.880712 -1.000000
v -4.000000 2.157528 -1.000000
v -6.000000 0.000000 -1.000000
v -8.000000 0.000000 -1.000000
v -8.000000 10.000000 -1.000000
v -6.000000 10.000000 -1.000000
v -4.000000 10.000000 -1.000000
v -2.000000 10.000000 -1.000000
v 0.000000 10.000000 -1.000000
v 2.000000 10.000000 -1.000000
v 4.000000 10.000000 -1.000000
v 6.000000 10.000000 -1.000000
v 8.000000 10.000000 -1.000000
v -8.000000 0.000000 1.000000
v -6.000000 0.779208 1.000000
v -4.000000 3.688628 1.000000
v -2.000000 5.088972 1.000000
v 0.000000 6.146931 1.000000
v 2.000000 6.146931 1.000000
v 4.000000 3.286061 1.000000
v 6.000000 0.000000 1.000000
v 8.000000 0.000000 1.000000
v 8.000000 10.000000 1.000000
v 6.000000 10.000000 1.000000
v 4.000000 10.000000 1.000000
v 2.000000 10.000000 1.000000
v 0.000000 10.000000 1.000000
v -2.000000 10.000000 1.000000
v -4.000000 10.000000 1.000000
v -6.000000 10.000000 1.000000
v -8.000000 10.000000 1.000000
v -1.509691 10.000000 -0.754845
v 0.000000 10.000000 -0.754845
v 1.509691 10.000000 -0.754845
v 1.509691 10.000000 0.754845
v 0.000000 10.000000 0.754845
v -1.509691 10.000000 0.754845
v -1.509691 10.352540 -0.754845
v 0.000000 10.352540 -0.754845
v 1.509691 10.352540 -0.754845
v 1.509691 10.352540 0.754845
v 0.000000 10.352540 0.754845
v -1.509691 10.352540 0.754845
vt 0.846154 0.769230
vt 0.846154 0.384615
vt 0.923077 0.384615
vt 0.923077 0.769230
vt 0.384615 0.076923
vt 0.000000 0.076923
vt 0.000000 0.000000
vt 0.384615 0.000000
vt 0.846154 0.384615
vt 0.846154 0.000000
vt 0.923077 0.000000
vt 0.923077 0.384615
vt 0.769230 0.076923
vt 0.384615 0.076923
vt 0.384615 0.000000
vt 0.769230 0.000000
vt 0.155196 0.846164
vt 0.155196 0.769291
vt 0.232101 0.769231
vt 0.232101 0.846104
vt 0.769231 0.076923
vt 0.769231 0.000000
vt 0.846154 0.000000
vt 0.846154 0.076923
vt 0.769231 0.769231
vt 0.769231 0.692307
vt 0.846154 0.692307
vt 0.846154 0.769231
vt 0.769231 0.615385
vt 0.846154 0.615385
vt 0.769231 0.538462
vt 0.846154 0.538462
vt 0.769231 0.461538
vt 0.846154 0.461538
vt 0.778660 0.442680
vt 0.836725 0.442680
vt 0.769231 0.307693
vt 0.846154 0.307693
vt 0.836725 0.326550
vt 0.778660 0.326550
vt 0.769231 0.230769
vt 0.846154 0.230769
vt 0.769231 0.153846
vt 0.846154 0.153846
vt 0.309007 0.769231
vt 0.309007 0.846104
vt 0.232101 0.846164
vt 0.232101 0.769290
vt 0.309007 0.922977
vt 0.232747 0.924115
vt 0.076923 0.769231
vt 0.076923 0.852213
vt 0.000000 0.911101
vt 0.000000 0.799200
vt 0.076923 0.995412
vt 0.000000 0.964961
vt 0.076923 0.922970
vt 0.077139 0.845728
vt 0.154043 0.846103
vt 0.154477 0.924443
vt 0.077832 0.769295
vt 0.154477 0.769231
vt 1.000000 0.012159
vt 1.000000 0.133545
vt 0.923077 0.110034
vt 0.923077 0.000000
vt 1.000000 0.203012
vt 0.923077 0.236421
vt 0.154477 0.921835
vt 0.232101 0.922977
vt 0.769230 0.769231
vt 0.384615 0.769231
vt 0.384615 0.692307
vt 0.769230 0.692307
vt 0.384615 0.615385
vt 0.769230 0.615385
vt 0.384615 0.538462
vt 0.642843 0.538462
vt 0.384615 0.461538
vt 0.532810 0.461538
vt 0.384615 0.384615
vt 0.532810 0.384615
vt 0.384615 0.307693
vt 0.573501 0.307693
vt 0.384615 0.230769
vt 0.627360 0.230769
vt 0.384615 0.153846
vt 0.739261 0.153846
vt 0.384615 0.769231
vt 0.000000 0.769231
vt 0.000000 0.692307
vt 0.384615 0.692307
vt 0.000000 0.615385
vt 0.384615 0.615385
vt 0.000000 0.538462
vt 0.301634 0.538462
vt 0.000000 0.461538
vt 0.158434 0.461538
vt 0.000000 0.384615
vt 0.148195 0.384615
vt 0.000000 0.307693
vt 0.160355 0.307693
vt 0.000000 0.230769
vt 0.281740 0.230769
vt 0.000000 0.153846
vt 0.351208 0.153846
vt 0.394190 0.827296
vt 0.394190 0.885361
vt 0.380630 0.885361
vt 0.380630 0.827296
vt 0.380631 0.827296
vt 0.380631 0.885361
vt 0.367072 0.885361
vt 0.367072 0.827296
vt 0.769231 0.384615
vt 0.778660 0.384615
vt 0.846154 0.384615
vt 0.836725 0.384615
vt 0.309007 0.885361
vt 0.309007 0.827296
vt 0.309007 0.769231
vt 0.367072 0.769231
vt 0.380631 0.769231
vt 0.394190 0.769231
vt 0.380630 0.769231
vt 0.394190 0.827296
vt 0.394190 0.769231
vt 0.407749 0.769231
vt 0.407749 0.827296
vt 0.421309 0.769231
vt 0.421309 0.827296
vt 0.407749 0.827296
vt 0.407749 0.769231
vn -1.0000 0.0000 0.0000
vn 0.0000 0.0000 -1.0000
vn 1.0000 0.0000 0.0000
vn 0.0000 0.0000 1.0000
vn 0.0000 -1.0000 0.0000
vn 0.0000 1.0000 0.0000
vn 0.1878 -0.9641 0.1878
vn 0.7390 -0.5834 0.3370
vn 0.7832 -0.6114 0.1130
vn 0.3089 -0.9330 -0.1847
vn -0.0785 -0.9938 0.0785
vn -0.8260 -0.5491 0.1273
vn -0.7858 -0.6172 -0.0397
vn -0.2076 -0.9559 -0.2076
usemtl None
s off
f 1/1/1 2/2/1 4/3/1 3/4/1
f 9/5/2 26/6/2 8/7/2 7/8/2
f 7/9/3 8/10/3 6/11/3 5/12/3
f 27/13/4 44/14/4 2/15/4 1/16/4
f 9/17/5 7/18/5 5/19/5 35/20/5
f 18/21/6 4/22/6 2/23/6 44/24/6
f 8/25/6 26/26/6 36/27/6 6/28/6
f 26/26/6 25/29/6 37/30/6 36/27/6
f 25/29/6 24/31/6 38/32/6 37/30/6
f 24/31/6 23/33/6 39/34/6 38/32/6
f 39/34/6 23/33/6 47/35/6 48/36/6
f 21/37/6 41/38/6 50/39/6 45/40/6
f 21/37/6 20/41/6 42/42/6 41/38/6
f 20/41/6 19/43/6 43/44/6 42/42/6
f 19/43/6 18/21/6 44/24/6 43/44/6
f 3/45/5 17/46/5 27/47/5 1/48/5
f 17/46/7 16/49/7 28/50/7 27/47/7
f 16/51/8 15/52/8 29/53/8 28/54/8
f 15/52/9 14/55/9 30/56/9 29/53/9
f 14/57/10 13/58/10 31/59/10 30/60/10
f 13/58/11 12/61/11 32/62/11 31/59/11
f 12/63/12 11/64/12 33/65/12 32/66/12
f 11/64/13 10/67/13 34/68/13 33/65/13
f 10/69/14 9/17/14 35/20/14 34/70/14
f 5/71/4 6/72/4 36/73/4 35/74/4
f 35/74/4 36/73/4 37/75/4 34/76/4
f 34/76/4 37/75/4 38/77/4 33/78/4
f 33/78/4 38/77/4 39/79/4 32/80/4
f 32/80/4 39/79/4 40/81/4 31/82/4
f 31/82/4 40/81/4 41/83/4 30/84/4
f 30/84/4 41/83/4 42/85/4 29/86/4
f 29/86/4 42/85/4 43/87/4 28/88/4
f 28/88/4 43/87/4 44/14/4 27/13/4
f 3/89/2 4/90/2 18/91/2 17/92/2
f 17/92/2 18/91/2 19/93/2 16/94/2
f 16/94/2 19/93/2 20/95/2 15/96/2
f 15/96/2 20/95/2 21/97/2 14/98/2
f 14/98/2 21/97/2 22/99/2 13/100/2
f 13/100/2 22/99/2 23/101/2 12/102/2
f 12/102/2 23/101/2 24/103/2 11/104/2
f 11/104/2 24/103/2 25/105/2 10/106/2
f 10/106/2 25/105/2 26/6/2 9/5/2
f 46/107/2 45/108/2 51/109/2 52/110/2
f 49/111/4 48/112/4 54/113/4 55/114/4
f 22/115/6 21/37/6 45/40/6 46/116/6
f 40/117/6 39/34/6 48/36/6 49/118/6
f 23/33/6 22/115/6 46/116/6 47/35/6
f 41/38/6 40/117/6 49/118/6 50/39/6
f 53/119/6 52/120/6 55/114/6 54/113/6
f 52/120/6 51/121/6 56/122/6 55/114/6
f 50/123/4 49/111/4 55/114/4 56/122/4
f 47/124/2 46/107/2 52/110/2 53/125/2
f 45/126/1 50/127/1 56/128/1 51/129/1
f 48/130/3 47/131/3 53/132/3 54/133/3
