# Blender v2.93.1 OBJ File: ''
# www.blender.org
mtllib wall4.mtl
o Cube
v -10.000000 0.000000 1.000000
v -10.000000 10.000000 1.000000
v -10.000000 0.000000 -1.000000
v -10.000000 10.000000 -1.000000
v 10.000000 0.000000 1.000000
v 10.000000 0.000000 -1.000000
v 8.000000 0.000000 -1.000000
v 6.000000 0.000000 -1.000000
v 4.000000 0.000000 -1.000000
v 2.000000 0.000000 -1.000000
v 0.000000 0.000000 -1.000000
v -2.000000 0.000000 -1.000000
v -4.000000 0.000000 -1.000000
v -6.000000 0.000000 -1.000000
v -8.000000 0.000000 -1.000000
v -8.000000 10.000000 -1.000000
v -6.000000 10.000000 -1.000000
v -4.000000 10.000000 -1.000000
v -2.000000 10.000000 -1.000000
v 0.000000 10.000000 -1.000000
v 2.000000 10.000000 -1.000000
v 4.000000 10.000000 -1.000000
v -8.000000 0.000000 1.000000
v -6.000000 0.000000 1.000000
v -4.000000 0.000000 1.000000
v -2.000000 0.000000 1.000000
v 0.000000 0.000000 1.000000
v 2.000000 0.000000 1.000000
v 4.000000 0.000000 1.000000
v 6.000000 0.000000 1.000000
v 8.000000 0.000000 1.000000
v 6.000000 10.000000 1.000000
v 4.000000 10.000000 1.000000
v 2.000000 10.000000 1.000000
v 0.000000 10.000000 1.000000
v -2.000000 10.000000 1.000000
v -4.000000 10.000000 1.000000
v -6.000000 10.000000 1.000000
v -8.000000 10.000000 1.000000
v -1.509691 10.000000 -0.754845
v 0.000000 10.000000 -0.754845
v 1.509691 10.000000 -0.754845
v 1.509691 10.000000 0.754845
v 0.000000 10.000000 0.754845
v -1.509691 10.000000 0.754845
v -1.509691 10.352540 -0.754845
v 0.000000 10.352540 -0.754845
v 1.509691 10.352540 -0.754845
v 1.509691 10.352540 0.754845
v 0.000000 10.352540 0.754845
v -1.509691 10.352540 0.754845
v 10.000000 7.997334 -1.000000
v 10.000000 7.882932 1.000000
v 8.000000 9.546721 1.000000
v 4.048890 10.000000 -1.000000
v 6.627773 10.000000 1.000000
v 6.000000 10.000000 0.513145
v 6.000000 9.572080 -1.000000
v 8.000000 9.133438 -1.000000
v 7.751344 9.753577 1.000000
v 8.861424 8.944510 -1.000000
vt 0.923158 0.384210
vt 0.923158 0.000000
vt 1.000000 0.000000
vt 1.000000 0.384210
vt 0.000000 0.691577
vt 0.384209 0.691577
vt 0.384209 0.768418
vt 0.000000 0.768418
vt 0.846316 0.076842
vt 0.846316 0.000000
vt 0.923158 0.000000
vt 0.923158 0.076842
vt 0.846188 0.692516
vt 0.846316 0.769351
vt 0.769485 0.769464
vt 0.769357 0.692628
vt 0.768418 0.130663
vt 0.787161 0.154754
vt 0.768459 0.154780
vt 0.845415 0.229626
vt 0.845418 0.231504
vt 0.768587 0.231616
vt 0.845546 0.308340
vt 0.768715 0.308452
vt 0.836160 0.327189
vt 0.778165 0.327274
vt 0.845803 0.462010
vt 0.768972 0.462122
vt 0.778358 0.443272
vt 0.836354 0.443188
vt 0.845931 0.538845
vt 0.769100 0.538958
vt 0.846060 0.615681
vt 0.769229 0.615792
vt 0.846316 0.768418
vt 0.846316 0.691577
vt 0.923158 0.691577
vt 0.923158 0.768418
vt 0.846316 0.614735
vt 0.923158 0.614735
vt 0.846316 0.537893
vt 0.923158 0.537893
vt 0.846316 0.461051
vt 0.923158 0.461051
vt 0.846316 0.384210
vt 0.923158 0.384210
vt 0.846316 0.307367
vt 0.923158 0.307367
vt 0.846316 0.230526
vt 0.923158 0.230526
vt 0.846316 0.153684
vt 0.923158 0.153684
vt 0.000000 0.153684
vt 0.384209 0.153684
vt 0.384209 0.230526
vt 0.000000 0.230526
vt 0.384209 0.307367
vt 0.000000 0.307367
vt 0.384209 0.384210
vt 0.000000 0.384210
vt 0.384209 0.461051
vt 0.000000 0.461051
vt 0.384209 0.537893
vt 0.000000 0.537893
vt 0.384209 0.614735
vt 0.000000 0.614735
vt 0.768419 0.768418
vt 0.384210 0.768418
vt 0.384210 0.691577
vt 0.768419 0.691577
vt 0.384210 0.614735
vt 0.768419 0.614735
vt 0.384210 0.537893
vt 0.768419 0.537893
vt 0.384210 0.461051
vt 0.768419 0.461051
vt 0.384210 0.384210
vt 0.768419 0.384210
vt 0.384210 0.307367
vt 0.768419 0.307367
vt 0.384210 0.230526
vt 0.768419 0.230526
vt 0.845782 0.044213
vt 0.768504 0.087376
vt 0.768621 0.077720
vt 0.769559 0.000054
vt 0.846316 0.000000
vt 0.071541 0.826422
vt 0.071541 0.884426
vt 0.057996 0.884426
vt 0.057996 0.826422
vt 0.085086 0.826422
vt 0.085086 0.884426
vt 0.071541 0.884426
vt 0.071541 0.826422
vt 0.845675 0.385175
vt 0.836257 0.385189
vt 0.768844 0.385286
vt 0.778261 0.385273
vt 0.057996 0.768431
vt 0.000000 0.826417
vt 0.000000 0.768418
vt 0.000000 0.884416
vt 0.085086 0.768418
vt 0.071541 0.768418
vt 0.071541 0.768418
vt 0.085086 0.826422
vt 0.098631 0.768418
vt 0.098631 0.826422
vt 0.112175 0.768418
vt 0.112175 0.826422
vt 0.098630 0.826422
vt 0.098630 0.768418
vt 0.000000 0.000000
vt 0.302870 0.000000
vt 0.366794 0.076842
vt 0.000000 0.076842
vt 0.923158 0.691474
vt 0.923158 0.384210
vt 1.000000 0.388605
vt 1.000000 0.691474
vt 0.768419 0.076842
vt 0.417503 0.076842
vt 0.424763 0.043745
vt 0.461154 0.000000
vt 0.768419 0.000000
vt 0.768419 0.153684
vt 0.400651 0.153684
vt 0.374741 0.086395
vt 0.384209 0.129564
vt 0.845564 0.154456
vt 0.845717 0.077402
vt 0.384210 0.228647
vn -1.0000 0.0000 0.0000
vn 0.0000 0.0000 1.0000
vn 0.0000 -1.0000 0.0000
vn 0.0000 1.0000 0.0000
vn 0.0000 0.0000 -1.0000
vn 0.6389 0.7680 0.0439
vn 1.0000 0.0000 0.0000
vn 0.2065 0.9415 -0.2663
usemtl None
s off
f 1/1/1 2/2/1 4/3/1 3/4/1
f 23/5/2 39/6/2 2/7/2 1/8/2
f 7/9/3 6/10/3 5/11/3 31/12/3
f 16/13/4 4/14/4 2/15/4 39/16/4
f 56/17/4 57/18/4 32/19/4
f 55/20/4 22/21/4 33/22/4 32/19/4 57/18/4
f 22/21/4 21/23/4 34/24/4 33/22/4
f 34/24/4 21/23/4 42/25/4 43/26/4
f 19/27/4 36/28/4 45/29/4 40/30/4
f 19/27/4 18/31/4 37/32/4 36/28/4
f 18/31/4 17/33/4 38/34/4 37/32/4
f 17/33/4 16/13/4 39/16/4 38/34/4
f 3/35/3 15/36/3 23/37/3 1/38/3
f 15/36/3 14/39/3 24/40/3 23/37/3
f 14/39/3 13/41/3 25/42/3 24/40/3
f 13/41/3 12/43/3 26/44/3 25/42/3
f 12/43/3 11/45/3 27/46/3 26/44/3
f 11/45/3 10/47/3 28/48/3 27/46/3
f 10/47/3 9/49/3 29/50/3 28/48/3
f 9/49/3 8/51/3 30/52/3 29/50/3
f 8/51/3 7/9/3 31/12/3 30/52/3
f 30/53/2 32/54/2 33/55/2 29/56/2
f 29/56/2 33/55/2 34/57/2 28/58/2
f 28/58/2 34/57/2 35/59/2 27/60/2
f 27/60/2 35/59/2 36/61/2 26/62/2
f 26/62/2 36/61/2 37/63/2 25/64/2
f 25/64/2 37/63/2 38/65/2 24/66/2
f 24/66/2 38/65/2 39/6/2 23/5/2
f 3/67/5 4/68/5 16/69/5 15/70/5
f 15/70/5 16/69/5 17/71/5 14/72/5
f 14/72/5 17/71/5 18/73/5 13/74/5
f 13/74/5 18/73/5 19/75/5 12/76/5
f 12/76/5 19/75/5 20/77/5 11/78/5
f 11/78/5 20/77/5 21/79/5 10/80/5
f 10/80/5 21/79/5 22/81/5 9/82/5
f 61/83/6 60/84/6 54/85/6 53/86/6 52/87/6
f 41/88/5 40/89/5 46/90/5 47/91/5
f 44/92/2 43/93/2 49/94/2 50/95/2
f 20/96/4 19/27/4 40/30/4 41/97/4
f 35/98/4 34/24/4 43/26/4 44/99/4
f 21/23/4 20/96/4 41/97/4 42/25/4
f 36/28/4 35/98/4 44/99/4 45/29/4
f 48/100/4 47/91/4 50/101/4 49/102/4
f 47/91/4 46/90/4 51/103/4 50/101/4
f 45/104/2 44/92/2 50/95/2 51/105/2
f 42/106/5 41/88/5 47/91/5 48/100/5
f 40/107/1 45/104/1 51/108/1 46/109/1
f 43/110/7 42/111/7 48/112/7 49/113/7
f 5/114/2 53/115/2 54/116/2 31/117/2
f 6/118/7 52/119/7 53/120/7 5/121/7
f 7/122/5 59/123/5 61/124/5 52/125/5 6/126/5
f 8/127/5 58/128/5 59/123/5 7/122/5
f 31/117/2 54/116/2 60/129/2 56/130/2 32/54/2 30/53/2
f 58/131/8 55/20/8 57/18/8 56/17/8 60/84/8 61/83/8 59/132/8
f 9/82/5 22/81/5 55/133/5 58/128/5 8/127/5
